<?xml version="1.0" encoding="utf-8"?>
<!-- Generator: Adobe Illustrator 16.0.0, SVG Export Plug-In . SVG Version: 6.00 Build 0)  -->
<!DOCTYPE svg PUBLIC "-//W3C//DTD SVG 1.1//EN" "http://www.w3.org/Graphics/SVG/1.1/DTD/svg11.dtd">
<svg version="1.1" xmlns="http://www.w3.org/2000/svg" xmlns:xlink="http://www.w3.org/1999/xlink" x="0px" y="0px"
	 width="193.967px" height="82.479px" viewBox="0 0 193.967 82.479" enable-background="new 0 0 193.967 82.479"
	 xml:space="preserve">
<g id="Layer_1">
	<g>
		<path fill-rule="evenodd" clip-rule="evenodd" fill="#00A1E4" d="M86.786,71.055l-0.955,1.664
			c-0.523-0.487-1.226-0.731-2.107-0.731c-0.844,0-1.512,0.28-2.004,0.845c-0.49,0.564-0.736,1.344-0.736,2.342
			c0,2.009,0.956,3.016,2.869,3.016c0.826,0,1.555-0.275,2.186-0.824l0.819,1.757c-0.646,0.405-1.216,0.663-1.701,0.771
			c-0.482,0.106-1.058,0.161-1.716,0.161c-1.479,0-2.645-0.429-3.497-1.293c-0.855-0.859-1.279-2.057-1.279-3.588
			c0-1.509,0.463-2.729,1.401-3.659c0.933-0.931,2.208-1.395,3.821-1.395C85,70.12,85.964,70.432,86.786,71.055z"/>
		<path fill-rule="evenodd" clip-rule="evenodd" fill="#00A1E4" d="M88.081,75.066c0-1.46,0.421-2.648,1.265-3.567
			c0.838-0.917,1.954-1.379,3.334-1.379c1.452,0,2.576,0.444,3.383,1.324c0.802,0.881,1.204,2.089,1.204,3.622
			c0,1.525-0.41,2.74-1.227,3.64c-0.818,0.898-1.939,1.35-3.36,1.35c-1.455,0-2.583-0.453-3.388-1.362
			C88.482,77.785,88.081,76.574,88.081,75.066L88.081,75.066z M90.405,75.066c0,2.109,0.759,3.16,2.274,3.16
			c0.694,0,1.245-0.274,1.652-0.821c0.407-0.548,0.609-1.329,0.609-2.339c0-2.076-0.753-3.115-2.262-3.115
			c-0.697,0-1.25,0.275-1.657,0.82C90.608,73.32,90.405,74.085,90.405,75.066z"/>
		<path fill-rule="evenodd" clip-rule="evenodd" fill="#00A1E4" d="M104.441,78.918c-0.2,0.333-0.556,0.607-1.058,0.82
			c-0.502,0.211-1.029,0.316-1.577,0.316c-1.026,0-1.84-0.259-2.428-0.774c-0.587-0.514-0.885-1.247-0.885-2.196
			c0-1.109,0.417-1.978,1.246-2.603c0.828-0.626,2.008-0.939,3.536-0.939c0.263,0,0.572,0.042,0.926,0.127
			c0-1.122-0.709-1.683-2.13-1.683c-0.838,0-1.543,0.141-2.108,0.421l-0.479-1.738c0.768-0.366,1.682-0.55,2.744-0.55
			c1.457,0,2.527,0.334,3.207,0.998c0.68,0.665,1.019,1.922,1.019,3.774v2.047c0,1.274,0.256,2.076,0.768,2.402
			c-0.183,0.327-0.39,0.524-0.614,0.602c-0.227,0.075-0.487,0.111-0.777,0.111c-0.324,0-0.614-0.119-0.87-0.359
			C104.704,79.46,104.529,79.199,104.441,78.918L104.441,78.918z M104.219,75.354c-0.378-0.073-0.663-0.11-0.855-0.11
			c-1.758,0-2.638,0.584-2.638,1.745c0,0.863,0.498,1.293,1.489,1.293c1.336,0,2.004-0.678,2.004-2.028V75.354z"/>
		<path fill-rule="evenodd" clip-rule="evenodd" fill="#00A1E4" d="M116.421,71.055l-0.952,1.664
			c-0.524-0.487-1.227-0.731-2.108-0.731c-0.846,0-1.514,0.28-2.004,0.845c-0.489,0.564-0.735,1.344-0.735,2.342
			c0,2.009,0.955,3.016,2.868,3.016c0.824,0,1.553-0.275,2.187-0.824l0.818,1.757c-0.648,0.405-1.216,0.663-1.701,0.771
			c-0.484,0.106-1.058,0.161-1.716,0.161c-1.479,0-2.644-0.429-3.497-1.293c-0.853-0.859-1.282-2.057-1.282-3.588
			c0-1.509,0.466-2.729,1.404-3.659c0.931-0.931,2.208-1.395,3.821-1.395C114.635,70.12,115.603,70.432,116.421,71.055z"/>
		<path fill-rule="evenodd" clip-rule="evenodd" fill="#00A1E4" d="M124.542,79.873v-5.894c0-0.588-0.186-1.061-0.556-1.418
			c-0.371-0.356-0.854-0.536-1.45-0.536c-0.373,0-0.743,0.099-1.121,0.298c-0.378,0.202-0.646,0.427-0.805,0.683v6.867h-2.271
			V66.743l2.271-0.538v4.702c0.575-0.524,1.372-0.787,2.384-0.787c1.196,0,2.128,0.334,2.79,0.998
			c0.661,0.665,0.99,1.616,0.99,2.854v5.9H124.542z"/>
		<path fill-rule="evenodd" clip-rule="evenodd" fill="#00A1E4" d="M147.566,79.041l0.792-1.785
			c0.668,0.538,1.421,0.806,2.259,0.806c0.87,0,1.305-0.311,1.305-0.929c0-0.367-0.135-0.666-0.396-0.898
			c-0.261-0.231-0.768-0.508-1.525-0.822c-1.647-0.686-2.472-1.646-2.472-2.883c0-0.829,0.314-1.471,0.946-1.936
			c0.631-0.459,1.436-0.691,2.417-0.691c0.995,0,1.928,0.222,2.803,0.668l-0.641,1.728c-0.487-0.415-1.165-0.622-2.035-0.622
			c-0.777,0-1.167,0.311-1.167,0.931c0,0.246,0.129,0.466,0.385,0.664c0.256,0.194,0.802,0.46,1.641,0.792
			c0.841,0.33,1.445,0.731,1.815,1.202c0.368,0.473,0.551,1.042,0.551,1.707c0,0.89-0.329,1.589-0.987,2.098
			c-0.655,0.509-1.55,0.766-2.681,0.766c-0.639,0-1.147-0.053-1.53-0.157C148.66,79.575,148.166,79.361,147.566,79.041z"/>
		<path fill-rule="evenodd" clip-rule="evenodd" fill="#00A1E4" d="M164.628,75.556h-6.839c0.044,0.762,0.307,1.356,0.79,1.78
			c0.479,0.424,1.128,0.634,1.947,0.634c1.021,0,1.796-0.262,2.327-0.787l0.862,1.701c-0.784,0.635-1.957,0.953-3.517,0.953
			c-1.457,0-2.61-0.428-3.463-1.284c-0.846-0.854-1.27-2.049-1.27-3.581c0-1.508,0.465-2.733,1.396-3.669
			c0.934-0.936,2.049-1.401,3.354-1.401c1.387,0,2.503,0.414,3.341,1.243c0.836,0.83,1.258,1.886,1.258,3.166
			C164.816,74.585,164.752,75,164.628,75.556L164.628,75.556z M157.882,73.871h4.684c-0.155-1.402-0.928-2.104-2.314-2.104
			C158.979,71.767,158.189,72.469,157.882,73.871z"/>
		<path fill-rule="evenodd" clip-rule="evenodd" fill="#00A1E4" d="M172.191,72.169c-0.4-0.268-0.839-0.402-1.312-0.402
			c-0.52,0-0.979,0.236-1.382,0.708c-0.404,0.471-0.604,1.047-0.604,1.727v5.452h-2.229v-9.569h2.229v0.878
			c0.624-0.708,1.457-1.06,2.496-1.06c0.76,0,1.343,0.115,1.747,0.35L172.191,72.169z"/>
		<polygon fill-rule="evenodd" clip-rule="evenodd" fill="#00A1E4" points="178.505,79.837 177.701,79.837 173.382,70.084 
			175.834,70.084 178.113,75.939 180.575,70.084 182.933,70.084 		"/>
		<path fill-rule="evenodd" clip-rule="evenodd" fill="#00A1E4" d="M192.78,75.556h-6.837c0.042,0.762,0.303,1.356,0.785,1.78
			c0.482,0.424,1.134,0.634,1.95,0.634c1.023,0,1.796-0.262,2.324-0.787l0.868,1.701c-0.787,0.635-1.96,0.953-3.52,0.953
			c-1.457,0-2.612-0.428-3.461-1.284c-0.848-0.854-1.271-2.049-1.271-3.581c0-1.508,0.465-2.733,1.396-3.669
			c0.933-0.936,2.052-1.401,3.354-1.401c1.389,0,2.503,0.414,3.341,1.243c0.839,0.83,1.258,1.886,1.258,3.166
			C192.967,74.585,192.904,75,192.78,75.556L192.78,75.556z M186.031,73.871h4.687c-0.155-1.402-0.928-2.104-2.314-2.104
			C187.132,71.767,186.34,72.469,186.031,73.871z"/>
		<g>
			<circle fill-rule="evenodd" clip-rule="evenodd" fill="#00A750" cx="137.579" cy="74.419" r="7.06"/>
			<path fill-rule="evenodd" clip-rule="evenodd" fill="#FFFFFF" d="M133.745,73.406h-0.631v-1.018h0.631v-1.104l1.27-0.466v1.57
				h1.497v1.018h-1.497v2.384c0,0.391,0.062,0.666,0.184,0.827c0.124,0.161,0.336,0.24,0.643,0.24c0.308,0,0.593-0.083,0.858-0.249
				v1.167c-0.298,0.101-0.717,0.152-1.265,0.152c-0.541,0-0.961-0.152-1.251-0.459c-0.292-0.307-0.438-0.743-0.438-1.311V73.406z"/>
			<path fill-rule="evenodd" clip-rule="evenodd" fill="#FFFFFF" d="M137.227,75.093c0-0.83,0.239-1.505,0.717-2.025
				c0.48-0.521,1.111-0.783,1.896-0.783c0.823,0,1.465,0.25,1.92,0.751c0.453,0.501,0.686,1.187,0.686,2.057
				c0,0.866-0.234,1.556-0.697,2.068c-0.466,0.509-1.102,0.767-1.908,0.767c-0.826,0-1.468-0.259-1.926-0.774
				C137.457,76.637,137.227,75.95,137.227,75.093L137.227,75.093z M138.548,75.093c0,1.198,0.429,1.795,1.292,1.795
				c0.393,0,0.706-0.156,0.94-0.467c0.227-0.311,0.346-0.755,0.346-1.328c0-1.178-0.429-1.77-1.286-1.77
				c-0.397,0-0.712,0.155-0.941,0.465C138.663,74.102,138.548,74.537,138.548,75.093z"/>
		</g>
		<path fill-rule="evenodd" clip-rule="evenodd" fill="#00A750" d="M5.709,80.356H1V59.138c3.002-0.103,4.893-0.157,5.664-0.157
			c3.094,0,5.543,0.904,7.354,2.715c1.81,1.812,2.716,4.217,2.716,7.209C16.734,76.541,13.058,80.356,5.709,80.356L5.709,80.356z
			 M4.769,62.44v14.473c0.609,0.059,1.262,0.088,1.969,0.088c1.902,0,3.391-0.687,4.463-2.068c1.074-1.381,1.613-3.31,1.613-5.793
			c0-4.539-2.108-6.804-6.323-6.804C6.086,62.335,5.511,62.37,4.769,62.44z"/>
		<path fill-rule="evenodd" clip-rule="evenodd" fill="#00A750" d="M23.938,72.533v7.823h-3.771V59.138
			c2.514-0.103,3.983-0.157,4.409-0.157c3.36,0,5.814,0.514,7.363,1.544c1.554,1.029,2.331,2.631,2.331,4.813
			c0,4.864-2.876,7.299-8.62,7.299C25.225,72.637,24.657,72.603,23.938,72.533L23.938,72.533z M23.938,62.409v6.769
			c0.638,0.07,1.144,0.104,1.508,0.104c1.722,0,2.979-0.287,3.775-0.862c0.792-0.568,1.189-1.503,1.189-2.79
			c0-2.197-1.778-3.295-5.325-3.295C24.691,62.335,24.305,62.36,23.938,62.409z"/>
		<linearGradient id="SVGID_2_" gradientUnits="userSpaceOnUse" x1="48.4731" y1="45.4878" x2="23.9021" y2="75.0394">
			<stop  offset="0" style="stop-color:#00A750"/>
			<stop  offset="1" style="stop-color:#00A750;stop-opacity:0"/>
		</linearGradient>
		<path fill="url(#SVGID_2_)" d="M27.246,0c0,0-3.578,24.076,14.582,57.784c0,0,5.917,9.126,0,13.505c0,0-2.338,2.318-7.567,4.655
			c0,0-1.925,0.415-2.338,1.927c0,0,18.16,3.303,40.038-7.842c0,0,8.391-5.366,11.832-8.529c0,0,5.228-4.267,12.932-3.028
			c0,0-1.843-6.873-10.963-3.575C85.761,54.898,62.053,71.905,27.246,0z"/>
		<linearGradient id="SVGID_3_" gradientUnits="userSpaceOnUse" x1="88.7212" y1="36.7378" x2="64.6595" y2="49.5707">
			<stop  offset="0.0033" style="stop-color:#009A4B"/>
			<stop  offset="1" style="stop-color:#009A4B;stop-opacity:0"/>
		</linearGradient>
		<path fill="url(#SVGID_3_)" d="M68.787,38.862c-1.465,1.703-3.257,3.799-8.889,10.22c0,0,4.984,5.025,9.715,6.268
			c3.336,1.183,7.367,1.525,7.367,1.525c12.383-10.455,12.692-34.449,12.692-34.449C77.823,28.05,70.495,36.704,68.787,38.862z"/>
	</g>
</g>
<g id="Layer_3">
</g>
<g id="Layer_5">
</g>
<g id="Layer_6" display="none">
	<g display="inline">
		<defs>
			<rect id="SVGID_5_" x="-916.102" y="89.474" width="1920" height="869.956"/>
		</defs>
		<clipPath id="SVGID_4_">
			<use xlink:href="#SVGID_5_"  overflow="visible"/>
		</clipPath>
		<g clip-path="url(#SVGID_4_)">
			
				<image overflow="visible" width="2560" height="1440" xlink:href="FC5FF4D3.jpg"  transform="matrix(1 0 0 1 -1403.8784 -396.1792)">
			</image>
		</g>
	</g>
</g>
<g id="Layer_7" display="none">
	<g display="inline">
		<defs>
			<rect id="SVGID_7_" x="-944.104" y="90.896" width="1946.458" height="893.955"/>
		</defs>
		<clipPath id="SVGID_6_">
			<use xlink:href="#SVGID_7_"  overflow="visible"/>
		</clipPath>
		<g clip-path="url(#SVGID_6_)">
			
				<image overflow="visible" width="1920" height="1440" xlink:href="FC5FF4D6.jpg"  transform="matrix(1 0 0 1 -917.645 -144.7676)">
			</image>
		</g>
	</g>
</g>
<g id="Layer_4">
</g>
<g id="menu">
</g>
</svg>
