<?xml version="1.0" encoding="utf-8"?>
<!-- Generator: Adobe Illustrator 16.0.0, SVG Export Plug-In . SVG Version: 6.00 Build 0)  -->
<!DOCTYPE svg PUBLIC "-//W3C//DTD SVG 1.1//EN" "http://www.w3.org/Graphics/SVG/1.1/DTD/svg11.dtd">
<svg version="1.1" id="Layer_1" xmlns="http://www.w3.org/2000/svg" xmlns:xlink="http://www.w3.org/1999/xlink" x="0px" y="0px"
	 width="33.441px" height="33.443px" viewBox="0 0 33.441 33.443" enable-background="new 0 0 33.441 33.443" xml:space="preserve">
<g display="none">
	<g display="inline">
		<defs>
			<rect id="SVGID_1_" x="-668.802" y="-922.081" width="1925.858" height="817.596"/>
		</defs>
		<clipPath id="SVGID_2_">
			<use xlink:href="#SVGID_1_"  overflow="visible"/>
		</clipPath>
		<g clip-path="url(#SVGID_2_)">
		</g>
	</g>
</g>
<g>
	<circle fill="#232434" cx="16.721" cy="16.724" r="16.721"/>
	<path fill="#FFFFFF" d="M27.774,7.294H5.663c-0.797,0-1.438,0.642-1.44,1.438v15.976c0.004,0.798,0.643,1.436,1.44,1.439h22.11
		c0.802-0.004,1.439-0.642,1.445-1.439V8.734C29.214,7.937,28.575,7.294,27.774,7.294z M17.548,17.938
		c-0.17,0.178-0.47,0.3-0.789,0.296c-0.318,0-0.62-0.114-0.797-0.302L7.183,9.036h19.206L17.548,17.938z M12.284,16.688l-6.316,6.46
		V10.288L12.284,16.688z M13.51,17.932l1.212,1.229c0.566,0.563,1.313,0.818,2.035,0.818c0.727-0.003,1.469-0.25,2.029-0.811
		l1.188-1.203l6.293,6.438H7.177L13.51,17.932z M21.207,16.729l6.268-6.308v12.728L21.207,16.729z"/>
</g>
<g id="Layer_5">
</g>
<g id="_x31__1_">
</g>
<g id="Layer_4">
</g>
</svg>
