<?xml version="1.0" encoding="utf-8"?>
<!-- Generator: Adobe Illustrator 16.0.0, SVG Export Plug-In . SVG Version: 6.00 Build 0)  -->
<!DOCTYPE svg PUBLIC "-//W3C//DTD SVG 1.1//EN" "http://www.w3.org/Graphics/SVG/1.1/DTD/svg11.dtd">
<svg version="1.1" id="Layer_1" xmlns="http://www.w3.org/2000/svg" xmlns:xlink="http://www.w3.org/1999/xlink" x="0px" y="0px"
	 width="31.539px" height="31.539px" viewBox="0 0 31.539 31.539" enable-background="new 0 0 31.539 31.539" xml:space="preserve">
<g display="none">
	<g display="inline">
		<defs>
			<rect id="SVGID_1_" x="-669.549" y="-874.161" width="1925.859" height="817.596"/>
		</defs>
		<clipPath id="SVGID_2_">
			<use xlink:href="#SVGID_1_"  overflow="visible"/>
		</clipPath>
		<g clip-path="url(#SVGID_2_)">
		</g>
	</g>
</g>
<g>
	<path fill="#232434" d="M31.539,15.773c0,8.709-7.059,15.766-15.769,15.766C7.062,31.539,0,24.482,0,15.773
		C0,7.062,7.062,0,15.771,0C24.48,0,31.539,7.062,31.539,15.773z"/>
	<g>
		<path fill="#FFFFFF" d="M7.641,4.67C6.389,5.584,2.7,10.356,8.36,20.15c5.969,10.32,12.371,9.422,13.697,8.594l-4.041-6.753
			c-1.106,0.661-1.938-0.236-3.457-2.207c-1.008-1.304-2.094-3.009-2.914-4.864c-0.563-1.299-1.014-2.636,0.145-3.329L7.641,4.67z"
			/>
		<path fill="#FFFFFF" d="M25.708,26.58c0.51-0.311,0.661-0.88,0.423-1.282l0.003-0.006c0,0-3.155-5.267-3.157-5.269
			c-0.248-0.414-0.838-0.504-1.322-0.219l-2.238,1.34l4.05,6.77c0,0,2.235-1.323,2.231-1.329L25.708,26.58z"/>
		<path fill="#FFFFFF" d="M15.438,9.406c0.514-0.306,0.666-0.875,0.425-1.276l0.007-0.004c0,0-3.244-5.417-3.248-5.425
			c-0.248-0.413-0.838-0.506-1.322-0.218L9.061,3.826l4.136,6.919l2.237-1.329L15.438,9.406z"/>
	</g>
</g>
<g id="Layer_5">
</g>
<g id="_x31__1_">
</g>
<g id="Layer_4">
</g>
</svg>
