<?xml version="1.0" encoding="utf-8"?>
<!-- Generator: Adobe Illustrator 16.0.0, SVG Export Plug-In . SVG Version: 6.00 Build 0)  -->
<!DOCTYPE svg PUBLIC "-//W3C//DTD SVG 1.1//EN" "http://www.w3.org/Graphics/SVG/1.1/DTD/svg11.dtd">
<svg version="1.1" xmlns="http://www.w3.org/2000/svg" xmlns:xlink="http://www.w3.org/1999/xlink" x="0px" y="0px" width="41px"
	 height="40.994px" viewBox="0 0 41 40.994" enable-background="new 0 0 41 40.994" xml:space="preserve">
<g id="Layer_1">
</g>
<g id="Layer_5">
</g>
<g id="_x31_" display="none">
	<rect x="-122.6" y="-795.608" display="inline" fill="none" width="945.905" height="1437"/>
	<text transform="matrix(1 0 0 1 -122.147 -778.792)" display="inline"><tspan x="0" y="0" font-family="'DFLiHei-Lt-WIN-BF'" font-size="21">「生命工作者證書課程」是DP的核心課程，由創辦人兼全職義務導師周華山博士悉心研究，結合他多年</tspan><tspan x="0" y="36" font-family="'DFLiHei-Lt-WIN-BF'" font-size="21">大學教授的紮實理論，豐富的培訓經驗，及個人的真摯實踐。整個課程分三階段進行，為期五個月，讓</tspan><tspan x="315" y="72" font-family="'DFLiHei-Lt-WIN-BF'" font-size="21">學員有系統、持續地進修和轉化。</tspan><tspan x="9" y="144" font-family="'DFLiHei-Lt-WIN-BF'" font-size="21">「生命工作者」是生命的同行者，</tspan><tspan x="324" y="144" fill="#0CA74F" font-family="'DFLiHei-Md-HK-BF'" font-size="24">用自己的生命啟發和支持其他生命</tspan><tspan x="684" y="144" font-family="'DFLiHei-Lt-WIN-BF'" font-size="21">。最重要的療癒工具，不是</tspan><tspan x="0" y="180" font-family="'DFLiHei-Lt-WIN-BF'" font-size="21">任何理論或門派，而是自己的生命。因此，生命工作者會以身作則，用心療癒和淨化「自己」，不斷學</tspan><tspan x="0" y="216" font-family="'DFLiHei-Lt-WIN-BF'" font-size="21">習放下批判和投射，接納生命、感動生命、療癒生命，盡力做到表裡如一、自我完善。唯獨我們內心清</tspan><tspan x="21" y="252" font-family="'DFLiHei-Lt-WIN-BF'" font-size="21">淨，才有能力盛載其他生命的創傷和脆弱，否則，我們會不自覺將自身的陰影，投射到對方身上。</tspan><tspan x="193.5" y="288" fill="#0CA74F" font-family="'DFLiHei-Md-HK-BF'" font-size="24">療癒他人，必先自我療癒</tspan><tspan x="457.5" y="288" font-family="'DFLiHei-Lt-WIN-BF'" font-size="21">，這是是畢生修煉的實踐旅程。</tspan><tspan x="472.5" y="396" fill="#0CA74F" font-family="'DFLiHei-Md-WIN-BF'" font-size="36">   </tspan><tspan x="0" y="1188" font-family="'DFLiHei-Lt-WIN-BF'" font-size="21">完成上述三階段後，學員還可以免費參加為期七週的生命教練培訓班，在導師與資深教練的指導下持續</tspan><tspan x="283.5" y="1224" font-family="'DFLiHei-Lt-WIN-BF'" font-size="21">磨練，掌握生命工作者的專業技巧，包括</tspan><tspan x="4.5" y="1260" fill="#0CA74F" font-family="'DFLiHei-Md-HK-BF'" font-size="24">情感連線的藝術、欣賞正向出發點的竅門、高效溝通的發問心法與方法、情緒轉化的秘，</tspan><tspan x="148.5" y="1296" fill="#0CA74F" font-family="'DFLiHei-Md-HK-BF'" font-size="24">以及生命教練自我修煉的終極方法及具體技術</tspan><tspan x="628.5" y="1296" font-family="'DFLiHei-Lt-WIN-BF'" font-size="21">，創造圓滿人生。</tspan></text>
	<g display="inline">
		<rect x="-89.443" y="-171.464" fill="#E9EBEB" width="287.747" height="486.491"/>
		<path fill="#231F20" d="M13.337,12.977h-16.47v0.852h-1.393V2.805c-0.929,1.019-2.03,2.052-3.302,3.102l-0.986-1.033
			c3.063-2.457,5.383-5.089,6.96-7.896h-6.258v-1.31h6.912c0.567-1.05,1.117-2.396,1.649-4.041L1.782-8.09
			C1.33-6.787,0.834-5.539,0.29-4.332h12.592v1.31H-0.363c-0.862,1.534-1.784,2.914-2.769,4.136v10.549h7.268V4.551h-5.533V3.233
			h5.533v-4.671h1.355v4.671h6.084v1.317H5.491v7.111h7.847V12.977z"/>
		<path fill="#231F20" d="M22.861-2.915c-1.323,5.699-2.959,9.688-4.915,11.976l-1.084-0.803c1.907-2.354,3.471-6.2,4.694-11.531
			L22.861-2.915z M28.972,12.018c0,0.426-0.139,0.799-0.417,1.119c-0.278,0.321-0.589,0.53-0.927,0.622
			c-0.334,0.097-0.959,0.144-1.869,0.144c-0.734,0-1.318-0.016-1.751-0.047l-0.53-1.331c2.212,0.053,3.455,0.019,3.733-0.112
			c0.278-0.133,0.417-0.389,0.417-0.777V-8.223h1.344V12.018z M38.988,8.432l-1.28,0.555c-1.167-4.05-2.6-7.959-4.301-11.727
			L34.7-3.273C36.229,0.148,37.657,4.048,38.988,8.432"/>
		<path fill="#231F20" d="M-0.363,38.452l-1.007,0.935c-0.667-1.296-1.307-2.355-1.923-3.176v13.267h-1.28V36.789
			c-1.028,2.324-2.137,4.259-3.326,5.801l-0.889-1.081c1.601-2.073,2.94-4.618,4.017-7.639h-3.412v-1.245h3.61v-5.249h1.28v5.249
			h2.833v1.245h-2.833v0.273C-2.34,35.306-1.365,36.744-0.363,38.452 M13.485,48.557l-0.924,0.982
			c-1.634-1.685-3.375-3.176-5.222-4.472c-2.614,2.054-5.308,3.532-8.083,4.432l-0.728-1.055c6.087-2.11,10.508-5.782,13.27-11.016
			l1.232,0.528c-1.315,2.399-2.874,4.456-4.682,6.175C10.408,45.667,12.122,47.14,13.485,48.557 M13.361,31.54H6.624
			c-1.117,1.939-2.413,3.733-3.88,5.384c1.452-0.107,3.192-0.311,5.222-0.617c0.699-0.99,1.237-1.874,1.615-2.647l1.181,0.558
			c-2.34,4.758-6.023,8.057-11.05,9.889l-0.726-1.136c3.458-1.258,6.114-3.02,7.97-5.27c-2.68,0.337-4.764,0.558-6.258,0.653
			L0.29,37.047c0.954-0.049,2.549-1.887,4.793-5.507h-5.468v-1.28h6.529c-0.306-0.631-0.774-1.456-1.406-2.474l1.256-0.482
			c0.575,0.905,1.114,1.891,1.615,2.956h5.752V31.54z"/>
		<path fill="#231F20" d="M21.629,35.779c-1.034,4.591-2.212,8.209-3.535,10.855l-1.232-0.863c1.43-2.563,2.563-6.031,3.401-10.412
			L21.629,35.779z M34.071,42.296c-0.096,1.593-0.244,2.924-0.437,3.984c-0.192,1.063-0.415,1.754-0.675,2.078
			c-0.249,0.319-0.592,0.541-1.021,0.664c-0.425,0.123-1.425,0.183-2.991,0.183c-1.165,0-2.14-0.027-2.914-0.08
			c-0.777-0.052-1.336-0.236-1.674-0.553c-0.343-0.318-0.514-0.771-0.514-1.36V33.206h1.369v13.62c0,0.23,0.069,0.439,0.206,0.619
			c0.145,0.18,0.284,0.286,0.423,0.321c0.14,0.032,0.771,0.052,1.896,0.062l3.278,0.011c0.251,0,0.509-0.107,0.763-0.327
			c0.254-0.22,0.463-0.95,0.629-2.195c0.161-1.247,0.236-2.419,0.22-3.503L34.071,42.296z M31.72,34.165l-1.136,0.913
			c-1.28-2.3-3.171-4.588-5.677-6.863l1.034-0.938C28.324,29.48,30.249,31.775,31.72,34.165 M38.961,45.166l-1.414,0.504
			c-0.632-2.799-1.929-5.993-3.884-9.582l1.232-0.729C36.818,39.146,38.174,42.416,38.961,45.166"/>
	</g>
</g>
<g id="_x32_" display="none">
</g>
<g id="_x33_">
	<g>
		<path fill="#00A750" d="M41,20.505c0,11.317-9.179,20.489-20.498,20.489C9.179,40.994,0,31.822,0,20.505C0,9.178,9.179,0,20.502,0
			C31.821,0,41,9.178,41,20.505z"/>
		<path fill="#FFFFFF" d="M18.048,28.788V21.43h4.905v7.358h6.132v-9.809h3.678L20.5,7.943L8.237,18.979h3.679v9.809H18.048z"/>
	</g>
</g>
<g id="_x34_" display="none">
	<g display="inline">
		<g>
			<rect x="-143.401" y="-76.139" fill="#78CBBD" width="990.978" height="81.44"/>
			<rect x="-143.401" y="20.78" fill="#0CA74F" width="990.979" height="81.441"/>
		</g>
	</g>
</g>
<g id="Layer_4">
</g>
</svg>
