<?xml version="1.0" encoding="utf-8"?>
<!-- Generator: Adobe Illustrator 16.0.0, SVG Export Plug-In . SVG Version: 6.00 Build 0)  -->
<!DOCTYPE svg PUBLIC "-//W3C//DTD SVG 1.1//EN" "http://www.w3.org/Graphics/SVG/1.1/DTD/svg11.dtd">
<svg version="1.1" id="Layer_1" xmlns="http://www.w3.org/2000/svg" xmlns:xlink="http://www.w3.org/1999/xlink" x="0px" y="0px"
	 width="31px" height="31px" viewBox="0 0 31 31" enable-background="new 0 0 31 31" xml:space="preserve">
<circle cx="15.5" cy="15.5" r="15"/>
<path fill="#FFFFFF" d="M13.11,14.166h-1.607v1.606h1.607V14.166z M16.325,14.166h-1.608v1.606h1.608V14.166z M19.54,14.166h-1.608
	v1.606h1.608V14.166z M21.145,8.541h-0.802V6.934h-1.608v1.606h-6.428V6.934h-1.607v1.606H9.896c-0.891,0-1.599,0.724-1.599,1.607
	l-0.007,11.25c0,0.885,0.715,1.608,1.606,1.608h11.249c0.884,0,1.608-0.724,1.608-1.608v-11.25
	C22.753,9.265,22.028,8.541,21.145,8.541z M21.145,21.397H9.896v-8.838h11.249V21.397z"/>
</svg>
