<?xml version="1.0" encoding="utf-8"?>
<!-- Generator: Adobe Illustrator 16.0.0, SVG Export Plug-In . SVG Version: 6.00 Build 0)  -->
<!DOCTYPE svg PUBLIC "-//W3C//DTD SVG 1.1//EN" "http://www.w3.org/Graphics/SVG/1.1/DTD/svg11.dtd">
<svg version="1.1" xmlns="http://www.w3.org/2000/svg" xmlns:xlink="http://www.w3.org/1999/xlink" x="0px" y="0px" width="41px"
	 height="41.001px" viewBox="0 0 41 41.001" enable-background="new 0 0 41 41.001" xml:space="preserve">
<g id="Layer_1">
</g>
<g id="Layer_5">
</g>
<g id="_x31_" display="none">
	<rect x="-122.6" y="-735.491" display="inline" fill="none" width="945.905" height="1437"/>
	<text transform="matrix(1 0 0 1 -122.147 -718.6743)" display="inline"><tspan x="0" y="0" font-family="'DFLiHei-Lt-WIN-BF'" font-size="21">「生命工作者證書課程」是DP的核心課程，由創辦人兼全職義務導師周華山博士悉心研究，結合他多年</tspan><tspan x="0" y="36" font-family="'DFLiHei-Lt-WIN-BF'" font-size="21">大學教授的紮實理論，豐富的培訓經驗，及個人的真摯實踐。整個課程分三階段進行，為期五個月，讓</tspan><tspan x="315" y="72" font-family="'DFLiHei-Lt-WIN-BF'" font-size="21">學員有系統、持續地進修和轉化。</tspan><tspan x="9" y="144" font-family="'DFLiHei-Lt-WIN-BF'" font-size="21">「生命工作者」是生命的同行者，</tspan><tspan x="324" y="144" fill="#0CA74F" font-family="'DFLiHei-Md-HK-BF'" font-size="24">用自己的生命啟發和支持其他生命</tspan><tspan x="684" y="144" font-family="'DFLiHei-Lt-WIN-BF'" font-size="21">。最重要的療癒工具，不是</tspan><tspan x="0" y="180" font-family="'DFLiHei-Lt-WIN-BF'" font-size="21">任何理論或門派，而是自己的生命。因此，生命工作者會以身作則，用心療癒和淨化「自己」，不斷學</tspan><tspan x="0" y="216" font-family="'DFLiHei-Lt-WIN-BF'" font-size="21">習放下批判和投射，接納生命、感動生命、療癒生命，盡力做到表裡如一、自我完善。唯獨我們內心清</tspan><tspan x="21" y="252" font-family="'DFLiHei-Lt-WIN-BF'" font-size="21">淨，才有能力盛載其他生命的創傷和脆弱，否則，我們會不自覺將自身的陰影，投射到對方身上。</tspan><tspan x="193.5" y="288" fill="#0CA74F" font-family="'DFLiHei-Md-HK-BF'" font-size="24">療癒他人，必先自我療癒</tspan><tspan x="457.5" y="288" font-family="'DFLiHei-Lt-WIN-BF'" font-size="21">，這是是畢生修煉的實踐旅程。</tspan><tspan x="472.5" y="396" fill="#0CA74F" font-family="'DFLiHei-Md-WIN-BF'" font-size="36">   </tspan><tspan x="0" y="1188" font-family="'DFLiHei-Lt-WIN-BF'" font-size="21">完成上述三階段後，學員還可以免費參加為期七週的生命教練培訓班，在導師與資深教練的指導下持續</tspan><tspan x="283.5" y="1224" font-family="'DFLiHei-Lt-WIN-BF'" font-size="21">磨練，掌握生命工作者的專業技巧，包括</tspan><tspan x="4.5" y="1260" fill="#0CA74F" font-family="'DFLiHei-Md-HK-BF'" font-size="24">情感連線的藝術、欣賞正向出發點的竅門、高效溝通的發問心法與方法、情緒轉化的秘，</tspan><tspan x="148.5" y="1296" fill="#0CA74F" font-family="'DFLiHei-Md-HK-BF'" font-size="24">以及生命教練自我修煉的終極方法及具體技術</tspan><tspan x="628.5" y="1296" font-family="'DFLiHei-Lt-WIN-BF'" font-size="21">，創造圓滿人生。</tspan></text>
	<g display="inline">
		<rect x="-89.443" y="-111.346" fill="#E9EBEB" width="287.747" height="486.491"/>
		<path fill="#231F20" d="M-1.137-12.432C-3.25-11.055-5.471-9.85-7.803-8.824l-0.578-1.146c1.784-0.712,4.036-1.92,6.765-3.624
			L-1.137-12.432z M1.327-11.152c0,1.412-0.565,2.121-1.69,2.121C-1-9.031-1.547-9.042-2-9.057l-0.431-1.232
			c0.294,0.017,0.867,0.021,1.711,0.021c0.509,0,0.764-0.23,0.764-0.696v-6.642h-8.203v-1.232h9.486V-11.152z M-2.629-14.96
			l-0.667,1.034c-1.32-0.662-2.638-1.125-3.953-1.388l0.678-1.135C-5.109-16.095-3.796-15.597-2.629-14.96 M11.021,2.619H9.704
			v-1.28h-14.66v1.28h-1.31V-7.692h7.271c0.33-0.525,0.614-1.108,0.85-1.746l1.32,0.233L2.483-7.692h8.538V2.619z M9.704-6.436
			h-14.66v2.525h14.66V-6.436z M9.704-2.625h-14.66v2.684h14.66V-2.625z M9.728-12.483c-2.702,1.331-4.863,2.247-6.481,2.748
			l-0.428-1.16c2.15-0.728,4.346-1.671,6.588-2.833L9.728-12.483z M12.202-11.227c0,0.779-0.145,1.347-0.433,1.695
			c-0.295,0.348-0.97,0.522-2.03,0.522c-0.45,0-0.841-0.016-1.167-0.048l-0.437-1.28c0.431,0.032,0.822,0.048,1.175,0.048
			c0.688,0,1.125-0.056,1.304-0.166c0.18-0.11,0.271-0.3,0.271-0.573v-6.578H2.866v-1.232h9.335V-11.227z M7.732-14.735
			l-0.678,1.034c-1.018-0.691-2.161-1.304-3.425-1.837l0.777-1.012C5.802-15.948,6.91-15.345,7.732-14.735"/>
		<path fill="#231F20" d="M1.966,29.597c-0.607-0.321-0.91-0.726-0.91-1.219c0-0.237,0.102-0.484,0.305-0.73
			c0.204-0.255,0.498-0.378,0.876-0.378c0.79,0,1.183,0.518,1.183,1.551c0,0.847-0.498,1.663-1.491,2.453l-0.53-0.407
			C1.779,30.366,1.966,29.94,1.966,29.597"/>
		<path fill="#231F20" d="M37.657,31.989c-0.04,0.779-0.158,1.781-0.351,3.008c-0.192,1.221-0.391,1.986-0.597,2.303
			c-0.207,0.311-0.503,0.568-0.892,0.774c-0.391,0.203-0.788,0.308-1.189,0.308h-3.87l-0.506-1.345c1.167,0.067,2.092,0.1,2.774,0.1
			c0.835,0,1.446-0.026,1.834-0.083c0.386-0.059,0.672-0.354,0.862-0.885c0.19-0.527,0.346-1.499,0.469-2.913h-9.646
			c-1.141,2.448-3.942,4.199-8.403,5.249l-0.75-1.184c3.899-0.747,6.467-2.102,7.699-4.065h-7.748v-1.267h8.278
			c0.139-0.281,0.27-0.707,0.393-1.28h1.345c-0.086,0.498-0.188,0.927-0.311,1.28H37.657z M37.065,29.265
			c0,0.622-0.193,1.101-0.573,1.425c-0.38,0.322-1.526,0.45-3.43,0.375l-0.506-1.245c0.493,0.056,1.028,0.089,1.601,0.089
			c0.771,0,1.232-0.049,1.382-0.14c0.147-0.089,0.219-0.266,0.219-0.528v-1.012h-7.343v1.848h-1.28v-1.848h-6.81v2.648h-1.293
			v-9.561h7.364c-0.729-0.449-1.864-1.002-3.398-1.66l0.702-0.936c1.486,0.598,2.94,1.337,4.362,2.215
			c1.265-0.498,3.198-1.43,5.801-2.793H18.206v-1.135h18.157v1.135c-2.276,1.208-4.435,2.264-6.48,3.174h7.182V29.265z
			 M27.135,22.503h-6.808v1.651h6.808V22.503z M27.135,25.336h-6.808v1.738h6.808V25.336z M35.758,22.503h-7.343v1.651h7.343V22.503
			z M35.758,25.336h-7.343v1.738h7.343V25.336z"/>
	</g>
</g>
<g id="_x32_" display="none">
</g>
<g id="_x33_">
	<g>
		<circle fill="#00A750" cx="20.5" cy="20.503" r="20.5"/>
		<path fill="#FFFFFF" d="M34.051,8.943H6.942c-0.975,0-1.76,0.787-1.765,1.765v19.585c0.004,0.979,0.788,1.761,1.765,1.766h27.109
			c0.983-0.005,1.766-0.787,1.772-1.766V10.708C35.817,9.73,35.034,8.943,34.051,8.943z M21.512,21.992
			c-0.208,0.217-0.575,0.368-0.965,0.363c-0.393,0-0.762-0.142-0.979-0.371L8.805,11.079h23.548L21.512,21.992z M15.059,20.461
			L7.316,28.38V12.614L15.059,20.461z M16.563,21.984l1.487,1.506c0.693,0.692,1.606,1.003,2.495,1.003
			c0.889-0.003,1.801-0.306,2.488-0.993l1.455-1.476l7.714,7.895H8.797L16.563,21.984z M26,20.511l7.684-7.734V28.38L26,20.511z"/>
	</g>
</g>
<g id="_x34_" display="none">
	<g display="inline">
		<g>
			<rect x="-143.401" y="-16.021" fill="#78CBBD" width="990.978" height="81.44"/>
			<g>
				
					<text transform="matrix(1 0 0 1 -103.5313 31.6997)" fill="#FFFFFF" font-family="'DFLiHei-Md-WIN-BF'" font-size="24" letter-spacing="2">自在社有沒有宗教取向﹖</text>
			</g>
		</g>
	</g>
</g>
<g id="Layer_4">
</g>
</svg>
