<?xml version="1.0" encoding="utf-8"?>
<!-- Generator: Adobe Illustrator 16.0.0, SVG Export Plug-In . SVG Version: 6.00 Build 0)  -->
<!DOCTYPE svg PUBLIC "-//W3C//DTD SVG 1.1//EN" "http://www.w3.org/Graphics/SVG/1.1/DTD/svg11.dtd">
<svg version="1.1" xmlns="http://www.w3.org/2000/svg" xmlns:xlink="http://www.w3.org/1999/xlink" x="0px" y="0px" width="31px"
	 height="31px" viewBox="0 0 31 31" enable-background="new 0 0 31 31" xml:space="preserve">
<g id="Layer_1">
	<g>
		<circle cx="15.5" cy="15.5" r="15"/>
		<path fill="#FFFFFF" d="M10.937,12.298h1.956v-0.887v-0.87v-0.145c0-0.837,0.022-2.13,0.631-2.93
			c0.641-0.848,1.521-1.423,3.035-1.423c2.467,0,3.506,0.351,3.506,0.351l-0.488,2.898c0,0-0.815-0.235-1.576-0.235
			s-1.441,0.271-1.441,1.032v0.308v1.014v0.887h3.118l-0.217,2.829h-2.901v9.83h-3.666v-9.83h-1.956V12.298"/>
	</g>
</g>
<g id="Layer_3">
</g>
<g id="Layer_5">
</g>
<g id="Layer_6" display="none">
	<g display="inline">
		<defs>
			<rect id="SVGID_5_" x="-1852.623" y="60.049" width="1920" height="869.956"/>
		</defs>
		<clipPath id="SVGID_2_">
			<use xlink:href="#SVGID_5_"  overflow="visible"/>
		</clipPath>
		<g clip-path="url(#SVGID_2_)">
			
				<image overflow="visible" width="2560" height="1440" xlink:href="707C9D61.jpg"  transform="matrix(1 0 0 1 -2340.3994 -425.6045)">
			</image>
		</g>
	</g>
</g>
<g id="Layer_7" display="none">
	<g display="inline">
		<defs>
			<rect id="SVGID_7_" x="-1880.625" y="61.47" width="1946.458" height="893.955"/>
		</defs>
		<clipPath id="SVGID_3_">
			<use xlink:href="#SVGID_7_"  overflow="visible"/>
		</clipPath>
		<g clip-path="url(#SVGID_3_)">
			
				<image overflow="visible" width="1920" height="1440" xlink:href="707C9D67.jpg"  transform="matrix(1 0 0 1 -1854.166 -174.1929)">
			</image>
		</g>
	</g>
</g>
<g id="Layer_4">
</g>
<g id="menu">
</g>
</svg>
