<?xml version="1.0" encoding="utf-8"?>
<!-- Generator: Adobe Illustrator 16.0.0, SVG Export Plug-In . SVG Version: 6.00 Build 0)  -->
<!DOCTYPE svg PUBLIC "-//W3C//DTD SVG 1.1//EN" "http://www.w3.org/Graphics/SVG/1.1/DTD/svg11.dtd">
<svg version="1.1" xmlns="http://www.w3.org/2000/svg" xmlns:xlink="http://www.w3.org/1999/xlink" x="0px" y="0px" width="42px"
	 height="42px" viewBox="0 0 42 42" enable-background="new 0 0 42 42" xml:space="preserve">
<g id="Layer_1">
	<g>
		<path fill="none" stroke="#000000" stroke-width="0.25" stroke-miterlimit="10" d="M37.666,41H4.332C2.498,41,1,39.5,1,37.667
			V4.333C1,2.5,2.498,1,4.332,1h33.334C39.5,1,41,2.5,41,4.333v33.333C41,39.5,39.5,41,37.666,41z"/>
		<path fill="#231F20" d="M11,27.667h20v-2.222H11V27.667z M11,22.111h20v-2.223H11V22.111z M11,14.333v2.222h20v-2.222H11z"/>
	</g>
</g>
<g id="Layer_3">
</g>
<g id="Layer_5">
</g>
<g id="Layer_6" display="none">
	<g display="inline">
		<defs>
			<rect id="SVGID_102_" x="-1996.632" y="-230.084" width="1920" height="869.956"/>
		</defs>
		<clipPath id="SVGID_2_">
			<use xlink:href="#SVGID_102_"  overflow="visible"/>
		</clipPath>
		<g clip-path="url(#SVGID_2_)">
			
				<image overflow="visible" width="2560" height="1440" xlink:href="8CD6158.jpg"  transform="matrix(1 0 0 1 -2484.4082 -715.7378)">
			</image>
		</g>
	</g>
</g>
<g id="Layer_7" display="none">
</g>
<g id="Layer_4">
</g>
<g id="menu">
</g>
</svg>
