<?xml version="1.0" encoding="utf-8"?>
<!-- Generator: Adobe Illustrator 16.0.0, SVG Export Plug-In . SVG Version: 6.00 Build 0)  -->
<!DOCTYPE svg PUBLIC "-//W3C//DTD SVG 1.1//EN" "http://www.w3.org/Graphics/SVG/1.1/DTD/svg11.dtd">
<svg version="1.1" id="Layer_1" xmlns="http://www.w3.org/2000/svg" xmlns:xlink="http://www.w3.org/1999/xlink" x="0px" y="0px"
	 width="55.018px" height="55.016px" viewBox="0 0 55.018 55.016" enable-background="new 0 0 55.018 55.016" xml:space="preserve">
<g id="Layer_1_1_">
	<g display="none">
		<g display="inline">
			<defs>
				<rect id="SVGID_1_" x="-962.929" y="-1190.291" width="1925.858" height="817.596"/>
			</defs>
			<clipPath id="SVGID_2_">
				<use xlink:href="#SVGID_1_"  overflow="visible"/>
			</clipPath>
			<g clip-path="url(#SVGID_2_)">
			</g>
		</g>
	</g>
</g>
<g id="Layer_5">
</g>
<g id="_x31__1_" display="none">
	
		<rect x="23.521" y="28.451" display="inline" fill="none" stroke="#8B959A" stroke-miterlimit="10" width="751.464" height="519.589"/>
</g>
<path fill="#189E7F" d="M27.512,55.016C12.286,55.016-0.017,42.678,0,27.469C0.018,12.194,12.578-0.321,28.114,0.006
	c14.861,0.312,26.935,12.479,26.903,27.521C54.985,42.766,42.721,55.016,27.512,55.016z M27.333,39.861
	c2.092,0,4.184,0.004,6.272-0.001c1.49-0.002,2.98-0.006,4.47-0.021c0.801-0.008,1.605,0.005,2.4-0.071
	c2.405-0.228,4.354-2.21,4.503-4.627c0.088-1.428,0.062-2.862,0.064-4.294c0.007-3.323,0.002-6.646,0.003-9.969
	c0.002-1.008-0.161-1.982-0.653-2.871c-1.035-1.862-2.685-2.732-4.762-2.738c-7.984-0.021-15.969-0.01-23.952-0.007
	c-0.333,0-0.668,0.016-1,0.043c-2.466,0.209-4.463,2.166-4.699,4.631c-0.057,0.597-0.048,1.2-0.048,1.801
	c0.003,4.307,0.013,8.612,0.017,12.921c0.002,1.586,0.611,2.892,1.802,3.925c1.014,0.882,2.207,1.284,3.552,1.283
	C19.312,39.856,23.323,39.861,27.333,39.861z"/>
<path fill="#FFFFFF" d="M27.333,39.861c-4.01,0-8.021-0.004-12.031,0.004c-1.345,0.001-2.538-0.4-3.552-1.283
	c-1.189-1.033-1.8-2.339-1.802-3.925c-0.004-4.309-0.014-8.614-0.017-12.921c0-0.601-0.009-1.204,0.048-1.801
	c0.236-2.465,2.233-4.422,4.699-4.631c0.332-0.027,0.667-0.043,1-0.043c7.983-0.002,15.968-0.015,23.952,0.007
	c2.077,0.006,3.727,0.876,4.762,2.738c0.492,0.889,0.655,1.863,0.653,2.871c-0.001,3.323,0.004,6.646-0.003,9.969
	c-0.004,1.432,0.022,2.866-0.064,4.294c-0.148,2.417-2.098,4.399-4.503,4.627c-0.795,0.076-1.601,0.063-2.4,0.071
	c-1.488,0.014-2.979,0.019-4.47,0.021C31.517,39.865,29.425,39.861,27.333,39.861z M34.017,26.886
	c-3.363-2.217-6.684-4.406-10.02-6.606c0,4.428,0,8.801,0,13.212C27.346,31.284,30.659,29.101,34.017,26.886z"/>
<path fill="#189E7F" d="M34.017,26.886c-3.356,2.215-6.671,4.398-10.02,6.605c0-4.412,0-8.784,0-13.212
	C27.333,22.48,30.653,24.669,34.017,26.886z"/>
<g id="_x33_" display="none">
</g>
<g id="Layer_4">
</g>
</svg>
