<?xml version="1.0" encoding="utf-8"?>
<!-- Generator: Adobe Illustrator 16.0.0, SVG Export Plug-In . SVG Version: 6.00 Build 0)  -->
<!DOCTYPE svg PUBLIC "-//W3C//DTD SVG 1.1//EN" "http://www.w3.org/Graphics/SVG/1.1/DTD/svg11.dtd">
<svg version="1.1" id="Layer_1" xmlns="http://www.w3.org/2000/svg" xmlns:xlink="http://www.w3.org/1999/xlink" x="0px" y="0px"
	 width="55.018px" height="55.016px" viewBox="0 0 55.018 55.016" enable-background="new 0 0 55.018 55.016" xml:space="preserve">
<g id="Layer_1_1_">
	<g display="none">
		<g display="inline">
			<defs>
				<rect id="SVGID_1_" x="-962.929" y="-1190.291" width="1925.858" height="817.596"/>
			</defs>
			<clipPath id="SVGID_2_">
				<use xlink:href="#SVGID_1_"  overflow="visible"/>
			</clipPath>
			<g clip-path="url(#SVGID_2_)">
			</g>
		</g>
	</g>
</g>
<g id="Layer_5">
</g>
<g id="_x31__1_" display="none">
	
		<rect x="23.521" y="28.451" display="inline" fill="none" stroke="#8B959A" stroke-miterlimit="10" width="751.464" height="519.589"/>
</g>
<path fill="#189E7F" d="M27.512,55.016C12.286,55.016-0.017,42.678,0,27.469C0.018,12.194,12.578-0.321,28.114,0.006
	c14.861,0.312,26.935,12.479,26.903,27.521C54.985,42.766,42.721,55.016,27.512,55.016z"/>
<g id="_x33_" display="none">
</g>
<g id="Layer_4">
</g>
<g>
	<circle fill="#FFFFFF" cx="27.509" cy="28.111" r="5.129"/>
	<path fill="#FFFFFF" d="M22.7,12.084l-2.933,3.205h-5.081c-1.762,0-3.205,1.442-3.205,3.206v19.232
		c0,1.762,1.443,3.205,3.205,3.205H40.33c1.762,0,3.205-1.443,3.205-3.205V18.494c0-1.763-1.443-3.206-3.205-3.206h-5.081
		l-2.933-3.205H22.7z M27.509,36.123c-4.424,0-8.014-3.59-8.014-8.013c0-4.423,3.59-8.014,8.014-8.014
		c4.423,0,8.013,3.59,8.013,8.014C35.522,32.533,31.932,36.123,27.509,36.123z"/>
</g>
</svg>
