<?xml version="1.0" encoding="utf-8"?>
<!-- Generator: Adobe Illustrator 16.0.0, SVG Export Plug-In . SVG Version: 6.00 Build 0)  -->
<!DOCTYPE svg PUBLIC "-//W3C//DTD SVG 1.1//EN" "http://www.w3.org/Graphics/SVG/1.1/DTD/svg11.dtd">
<svg version="1.1" xmlns="http://www.w3.org/2000/svg" xmlns:xlink="http://www.w3.org/1999/xlink" x="0px" y="0px" width="31px"
	 height="31px" viewBox="0 0 31 31" enable-background="new 0 0 31 31" xml:space="preserve">
<g id="Layer_1">
	<g>
		<path fill-rule="evenodd" clip-rule="evenodd" d="M15.502,30.5C7.199,30.5,0.491,23.772,0.5,15.479
			C0.51,7.149,7.358,0.326,15.83,0.504c8.104,0.17,14.687,6.805,14.67,15.006C30.482,23.82,23.795,30.5,15.502,30.5z M15.404,22.236
			c1.141,0,2.281,0.001,3.421,0c0.813-0.001,1.625-0.003,2.437-0.011c0.437-0.004,0.876,0.003,1.31-0.039
			c1.312-0.125,2.374-1.205,2.455-2.523c0.048-0.778,0.033-1.561,0.035-2.341c0.004-1.812,0.001-3.624,0.002-5.436
			c0.001-0.55-0.088-1.081-0.356-1.565c-0.564-1.016-1.464-1.49-2.597-1.493C17.757,8.814,13.403,8.821,9.05,8.822
			c-0.182,0-0.364,0.008-0.545,0.023c-1.345,0.114-2.434,1.181-2.563,2.525c-0.031,0.325-0.026,0.654-0.026,0.982
			c0.002,2.348,0.007,4.696,0.009,7.045c0.001,0.865,0.334,1.577,0.982,2.141c0.553,0.481,1.203,0.7,1.937,0.699
			C11.03,22.233,13.218,22.236,15.404,22.236z"/>
		<path fill-rule="evenodd" clip-rule="evenodd" fill="#FFFFFF" d="M15.404,22.236c-2.187,0-4.374-0.002-6.561,0.001
			c-0.733,0.001-1.384-0.218-1.937-0.699c-0.648-0.563-0.981-1.275-0.982-2.141c-0.002-2.349-0.007-4.697-0.009-7.045
			c0-0.328-0.005-0.657,0.026-0.982c0.129-1.344,1.218-2.411,2.563-2.525C8.686,8.831,8.868,8.822,9.05,8.822
			c4.354-0.001,8.707-0.008,13.061,0.004c1.133,0.003,2.032,0.478,2.597,1.493c0.269,0.485,0.357,1.016,0.356,1.565
			c-0.001,1.812,0.002,3.624-0.002,5.436c-0.002,0.781,0.013,1.563-0.035,2.341c-0.081,1.318-1.144,2.399-2.455,2.523
			c-0.434,0.042-0.873,0.034-1.31,0.039c-0.812,0.008-1.624,0.01-2.437,0.011C17.686,22.237,16.545,22.236,15.404,22.236z
			 M19.049,15.161c-1.834-1.209-3.645-2.403-5.464-3.603c0,2.414,0,4.798,0,7.204C15.411,17.559,17.218,16.369,19.049,15.161z"/>
		<path fill-rule="evenodd" clip-rule="evenodd" d="M19.049,15.161c-1.831,1.208-3.638,2.398-5.464,3.602c0-2.406,0-4.79,0-7.204
			C15.404,12.758,17.215,13.952,19.049,15.161z"/>
	</g>
</g>
<g id="Layer_3">
</g>
<g id="Layer_5">
</g>
<g id="Layer_6" display="none">
	<g display="inline">
		<defs>
			<rect id="SVGID_5_" x="-1806.04" y="60.048" width="1920" height="869.956"/>
		</defs>
		<clipPath id="SVGID_2_">
			<use xlink:href="#SVGID_5_"  overflow="visible"/>
		</clipPath>
		<g clip-path="url(#SVGID_2_)">
			
				<image overflow="visible" width="2560" height="1440" xlink:href="B66E4918.jpg"  transform="matrix(1 0 0 1 -2293.8164 -425.605)">
			</image>
		</g>
	</g>
</g>
<g id="Layer_7" display="none">
	<g display="inline">
		<defs>
			<rect id="SVGID_7_" x="-1834.042" y="61.47" width="1946.458" height="893.955"/>
		</defs>
		<clipPath id="SVGID_3_">
			<use xlink:href="#SVGID_7_"  overflow="visible"/>
		</clipPath>
		<g clip-path="url(#SVGID_3_)">
			
				<image overflow="visible" width="1920" height="1440" xlink:href="B66E491F.jpg"  transform="matrix(1 0 0 1 -1807.583 -174.1934)">
			</image>
		</g>
	</g>
</g>
<g id="Layer_4">
</g>
<g id="menu">
</g>
</svg>
